<?xml version="1.0" encoding="utf-8"?>
<svg version="1.1" xmlns:xlink="http://www.w3.org/1999/xlink" width="12px" height="12px" viewBox="40 100.5  12 12" xmlns="http://www.w3.org/2000/svg">
  <path d="M 46 100.5  C 49.36 100.5  52 103.14  52 106.5  C 52 109.86  49.36 112.5  46 112.5  C 42.64 112.5  40 109.86  40 106.5  C 40 103.14  42.64 100.5  46 100.5  Z " fill-rule="nonzero" fill="#ffffff" stroke="none" />
  <path d="M 46 101  C 49.08 101  51.5 103.42  51.5 106.5  C 51.5 109.58  49.08 112  46 112  C 42.92 112  40.5 109.58  40.5 106.5  C 40.5 103.42  42.92 101  46 101  Z " stroke-width="1" stroke="#797979" fill="none" />
  <path d="M 46 109.5  C 44.32 109.5  43 108.18  43 106.5  C 43 104.82  44.32 103.5  46 103.5  C 47.68 103.5  49 104.82  49 106.5  C 49 108.18  47.68 109.5  46 109.5  " fill-rule="nonzero" fill="#797979" stroke="none" />
</svg>