<?xml version="1.0" encoding="utf-8"?>
<svg version="1.1" xmlns:xlink="http://www.w3.org/1999/xlink" width="12px" height="12px" viewBox="40 179.5  12 12" xmlns="http://www.w3.org/2000/svg">
  <path d="M 46 179.5  C 49.36 179.5  52 182.14  52 185.5  C 52 188.86  49.36 191.5  46 191.5  C 42.64 191.5  40 188.86  40 185.5  C 40 182.14  42.64 179.5  46 179.5  Z " fill-rule="nonzero" fill="#f0f0f0" stroke="none" />
  <path d="M 46 180  C 49.08 180  51.5 182.42  51.5 185.5  C 51.5 188.58  49.08 191  46 191  C 42.92 191  40.5 188.58  40.5 185.5  C 40.5 182.42  42.92 180  46 180  Z " stroke-width="1" stroke="#797979" fill="none" />
  <path d="M 46 188.5  C 44.32 188.5  43 187.18  43 185.5  C 43 183.82  44.32 182.5  46 182.5  C 47.68 182.5  49 183.82  49 185.5  C 49 187.18  47.68 188.5  46 188.5  " fill-rule="nonzero" fill="#797979" stroke="none" />
</svg>