<?xml version="1.0" encoding="utf-8"?>
<svg version="1.1" xmlns:xlink="http://www.w3.org/1999/xlink" width="30px" height="30px" xmlns="http://www.w3.org/2000/svg">
  <g transform="matrix(1 0 0 1 0 -5 )">
    <path d="M 15 5  C 23.400000000000002 5  30 11.6  30 20  C 30 28.400000000000002  23.400000000000002 35  15 35  C 6.6 35  0 28.400000000000002  0 20  C 0 11.6  6.6 5  15 5  Z " fill-rule="nonzero" fill="#ffffff" stroke="none" />
    <path d="M 15 5.5  C 23.12 5.5  29.5 11.879999999999999  29.5 20  C 29.5 28.12  23.12 34.5  15 34.5  C 6.879999999999999 34.5  0.5 28.12  0.5 20  C 0.5 11.879999999999999  6.879999999999999 5.5  15 5.5  Z " stroke-width="1" stroke="#8c8c8c" fill="none" />
  </g>
</svg>