<?xml version="1.0" encoding="utf-8"?>
<svg version="1.1" xmlns:xlink="http://www.w3.org/1999/xlink" width="259px" height="80px" xmlns="http://www.w3.org/2000/svg">
  <g transform="matrix(1 0 0 1 -1189 -138 )">
    <path d="M 1416.1181851713877 138.5  C 1416.1181851713877 138.5  1419.750503550072 139.0609758113798  1419.750503550072 139.0609758113798  C 1419.750503550072 139.0609758113798  1447.4353862379025 178  1447.4353862379025 178  C 1447.4353862379025 178  1419.750503550072 216.9390241886202  1419.750503550072 216.9390241886202  C 1419.750503550072 216.9390241886202  1416.1181851713877 217.5  1416.1181851713877 217.5  C 1416.1181851713877 217.5  1189.5 217.5  1189.5 217.5  C 1189.5 217.5  1189.5 138.5  1189.5 138.5  C 1189.5 138.5  1416.1181851713877 138.5  1416.1181851713877 138.5  Z " fill-rule="nonzero" fill="#ffffff" stroke="none" />
    <path d="M 1416.1181851713877 138.5  C 1416.1181851713877 138.5  1419.750503550072 139.0609758113798  1419.750503550072 139.0609758113798  C 1419.750503550072 139.0609758113798  1447.4353862379025 178  1447.4353862379025 178  C 1447.4353862379025 178  1419.750503550072 216.9390241886202  1419.750503550072 216.9390241886202  C 1419.750503550072 216.9390241886202  1416.1181851713877 217.5  1416.1181851713877 217.5  C 1416.1181851713877 217.5  1189.5 217.5  1189.5 217.5  C 1189.5 217.5  1189.5 138.5  1189.5 138.5  C 1189.5 138.5  1416.1181851713877 138.5  1416.1181851713877 138.5  Z " stroke-width="1" stroke="#8c8c8c" fill="none" />
  </g>
</svg>