<svg class="icon" viewBox="0 0 1024 1024" version="1.1" xmlns="http://www.w3.org/2000/svg" p-id="1376" height="128" width="128"><path d="M910.3 389.4H179.2c-28.2 0-51.2-21.2-51.2-47.2 0-26 23-47.2 51.2-47.2h731.1c9.8 0 17.6 7.9 17.6 17.6 0 9.7-7.9 17.6-17.6 17.6H179.2c-8.5 0-15.9 5.5-15.9 11.9 0 6.3 7.4 11.9 15.9 11.9h731.1c9.8 0 17.6 7.9 17.6 17.6 0.1 9.9-7.8 17.8-17.6 17.8zM910.3 728.9H179.2c-28.2 0-51.2-21.1-51.2-47.2 0-26 23-47.2 51.2-47.2h731.1c9.8 0 17.6 7.9 17.6 17.6 0 9.8-7.9 17.6-17.6 17.6H179.2c-8.5 0-15.9 5.5-15.9 11.9 0 6.3 7.4 11.9 15.9 11.9h731.1c9.8 0 17.6 7.9 17.6 17.6 0.1 9.9-7.8 17.8-17.6 17.8z" fill="#333333" p-id="1377"></path><path d="M876.8 559.2H145.7c-9.8 0-17.6-7.9-17.6-17.6 0-9.7 7.9-17.6 17.6-17.6h731.1c8.5 0 15.9-5.5 15.9-11.9 0-6.3-7.4-11.9-15.9-11.9H145.7c-9.8 0-17.6-7.9-17.6-17.6 0-9.7 7.9-17.6 17.6-17.6h731.1c28.2-0.2 51.2 21 51.2 47s-23 47.2-51.2 47.2z" fill="#333333" p-id="1378"></path></svg>