<?xml version="1.0" encoding="utf-8"?>
<svg version="1.1" xmlns:xlink="http://www.w3.org/1999/xlink" width="30px" height="30px" xmlns="http://www.w3.org/2000/svg">
  <g transform="matrix(1 0 0 1 -1004 -272 )">
    <path d="M 4.358705309734513 19.220572566371683  C 2.7890816814159294 15.266235398230092  3.5614821238938057 10.909014159292036  6.128323274336283 7.772450442477879  L 6.10349629380531 9.52550814159292  L 9.633092665486727 9.599990495575224  L 9.766884780530974 1.8223152743362847  L 1.990621948672566 1.6899037699115056  L 1.9175202053097349 5.219500141592921  L 3.6347385238938053 5.242948276991151  C 0.08046064778760982 9.369950046902657  -1.0257933345132746 15.225010223893808  1.0761598513274335 20.523942082300888  C 3.376800913274337 26.325331462831862  8.931163391150443 29.974945622123894  14.961359851327432 29.974945622123894  C 15.979268877876105 29.974945622123894  17.01098401061947 29.870118082300884  18.042699143362828 29.656331763716818  L 17.32132126725664 26.199826542477876  C 11.866320382300884 27.336376276991153  6.413791178761061 24.40263167522124  4.358764630088494 19.220504418584074  Z M 28.92227522123894 9.474379646017699  C 26.23266212389381 2.69667610619469  19.097694690265488 -1.1432575221238943  11.95841946902655 0.3436353982300878  L 12.678420265486725 3.8001406194690253  C 18.133421150442476 2.663590884955751  23.585950353982305 5.597335486725663  25.640976902654867 10.776637964601766  C 27.21197761061947 14.733799911504422  26.438200088495574 19.095258318584065  23.868604778761068 22.231468938053094  L 23.890673362831862 20.463228053097342  L 20.35969991150443 20.39702230088495  L 20.23970330973452 28.17328513274336  L 28.015966141592923 28.293281734513272  L 28.082171893805313 24.763685362831854  L 26.377382601769913 24.741616778761056  C 29.92212684955752 20.617439787610614  31.02414366371681 14.769441557522116  28.92215516814159 9.4743937699115  Z " fill-rule="nonzero" fill="#7f7f7f" stroke="none" transform="matrix(1 0 0 1 1004 272 )" />
  </g>
</svg>