<?xml version="1.0" encoding="utf-8"?>
<svg version="1.1" xmlns:xlink="http://www.w3.org/1999/xlink" width="12px" height="12px" viewBox="227 117.5  12 12" xmlns="http://www.w3.org/2000/svg">
  <path d="M 233 117.5  C 236.36 117.5  239 120.14  239 123.5  C 239 126.86  236.36 129.5  233 129.5  C 229.64 129.5  227 126.86  227 123.5  C 227 120.14  229.64 117.5  233 117.5  Z " fill-rule="nonzero" fill="#ffffff" stroke="none" />
  <path d="M 233 118  C 236.08 118  238.5 120.42  238.5 123.5  C 238.5 126.58  236.08 129  233 129  C 229.92 129  227.5 126.58  227.5 123.5  C 227.5 120.42  229.92 118  233 118  Z " stroke-width="1" stroke="#797979" fill="none" />
  <path d="M 233 126.5  C 231.32 126.5  230 125.18  230 123.5  C 230 121.82  231.32 120.5  233 120.5  C 234.68 120.5  236 121.82  236 123.5  C 236 125.18  234.68 126.5  233 126.5  " fill-rule="nonzero" fill="#797979" stroke="none" />
</svg>