<?xml version="1.0" encoding="utf-8"?>
<svg version="1.1" xmlns:xlink="http://www.w3.org/1999/xlink" width="12px" height="12px" viewBox="1143 140  12 12" xmlns="http://www.w3.org/2000/svg">
  <path d="M 1149 140  C 1152.36 140  1155 142.64  1155 146  C 1155 149.36  1152.36 152  1149 152  C 1145.64 152  1143 149.36  1143 146  C 1143 142.64  1145.64 140  1149 140  Z " fill-rule="nonzero" fill="#ffffff" stroke="none" />
  <path d="M 1149 140.5  C 1152.08 140.5  1154.5 142.92  1154.5 146  C 1154.5 149.08  1152.08 151.5  1149 151.5  C 1145.92 151.5  1143.5 149.08  1143.5 146  C 1143.5 142.92  1145.92 140.5  1149 140.5  Z " stroke-width="1" stroke="#797979" fill="none" />
  <path d="M 1149 149  C 1147.32 149  1146 147.68  1146 146  C 1146 144.32  1147.32 143  1149 143  C 1150.68 143  1152 144.32  1152 146  C 1152 147.68  1150.68 149  1149 149  " fill-rule="nonzero" fill="#797979" stroke="none" />
</svg>