<?xml version="1.0" encoding="utf-8"?>
<svg version="1.1" xmlns:xlink="http://www.w3.org/1999/xlink" width="12px" height="12px" viewBox="1143 115  12 12" xmlns="http://www.w3.org/2000/svg">
  <path d="M 1149 115  C 1152.36 115  1155 117.64  1155 121  C 1155 124.36  1152.36 127  1149 127  C 1145.64 127  1143 124.36  1143 121  C 1143 117.64  1145.64 115  1149 115  Z " fill-rule="nonzero" fill="#f0f0f0" stroke="none" />
  <path d="M 1149 115.5  C 1152.08 115.5  1154.5 117.92  1154.5 121  C 1154.5 124.08  1152.08 126.5  1149 126.5  C 1145.92 126.5  1143.5 124.08  1143.5 121  C 1143.5 117.92  1145.92 115.5  1149 115.5  Z " stroke-width="1" stroke="#797979" fill="none" />
  <path d="M 1149 124  C 1147.32 124  1146 122.68  1146 121  C 1146 119.32  1147.32 118  1149 118  C 1150.68 118  1152 119.32  1152 121  C 1152 122.68  1150.68 124  1149 124  " fill-rule="nonzero" fill="#797979" stroke="none" />
</svg>