<?xml version="1.0" encoding="utf-8"?>
<svg version="1.1" xmlns:xlink="http://www.w3.org/1999/xlink" width="12px" height="12px" viewBox="942 188  12 12" xmlns="http://www.w3.org/2000/svg">
  <path d="M 948 188  C 951.36 188  954 190.64  954 194  C 954 197.36  951.36 200  948 200  C 944.64 200  942 197.36  942 194  C 942 190.64  944.64 188  948 188  Z " fill-rule="nonzero" fill="#ffffff" stroke="none" />
  <path d="M 948 188.5  C 951.08 188.5  953.5 190.92  953.5 194  C 953.5 197.08  951.08 199.5  948 199.5  C 944.92 199.5  942.5 197.08  942.5 194  C 942.5 190.92  944.92 188.5  948 188.5  Z " stroke-width="1" stroke="#797979" fill="none" />
  <path d="M 948 197  C 946.32 197  945 195.68  945 194  C 945 192.32  946.32 191  948 191  C 949.68 191  951 192.32  951 194  C 951 195.68  949.68 197  948 197  " fill-rule="nonzero" fill="#797979" stroke="none" />
</svg>