<?xml version="1.0" encoding="utf-8"?>
<svg version="1.1" xmlns:xlink="http://www.w3.org/1999/xlink" width="56px" height="48px" xmlns="http://www.w3.org/2000/svg">
  <g transform="matrix(1 0 0 1 -28 -24 )">
    <path d="M 28 24  L 84 24  L 84 72  L 28 72  L 28 24  " fill-rule="nonzero" fill="#cccccc" stroke="none" />
    <path d="M 31 27  L 81 27  L 81 69  L 31 69  L 31 27  " fill-rule="nonzero" fill="#ffffff" stroke="none" />
    <path d="M 60.720000000000006 38.4  C 58.70400000000001 38.4  57.120000000000005 36.815999999999995  57.120000000000005 34.8  C 57.120000000000005 32.784  58.70400000000001 31.2  60.720000000000006 31.2  C 62.736000000000004 31.2  64.32000000000001 32.784  64.32000000000001 34.8  C 64.32000000000001 36.815999999999995  62.736000000000004 38.4  60.720000000000006 38.4  " fill-rule="nonzero" fill="#cccccc" stroke="none" />
    <path d="M 32 68  L 32 46  L 44 36  L 60.8 47.42857142857143  L 70.4 42  L 80 47.42857142857143  L 80 68  L 32 68  " fill-rule="nonzero" fill="#169bd5" stroke="none" />
  </g>
</svg>