<?xml version="1.0" encoding="utf-8"?>
<svg version="1.1" xmlns:xlink="http://www.w3.org/1999/xlink" width="12px" height="12px" viewBox="248 258.5  12 12" xmlns="http://www.w3.org/2000/svg">
  <path d="M 254 258.5  C 257.36 258.5  260 261.14  260 264.5  C 260 267.86  257.36 270.5  254 270.5  C 250.64 270.5  248 267.86  248 264.5  C 248 261.14  250.64 258.5  254 258.5  Z " fill-rule="nonzero" fill="#ffffff" stroke="none" />
  <path d="M 254 259  C 257.08 259  259.5 261.42  259.5 264.5  C 259.5 267.58  257.08 270  254 270  C 250.92 270  248.5 267.58  248.5 264.5  C 248.5 261.42  250.92 259  254 259  Z " stroke-width="1" stroke="#797979" fill="none" />
  <path d="M 254 267.5  C 252.32 267.5  251 266.18  251 264.5  C 251 262.82  252.32 261.5  254 261.5  C 255.68 261.5  257 262.82  257 264.5  C 257 266.18  255.68 267.5  254 267.5  " fill-rule="nonzero" fill="#797979" stroke="none" />
</svg>