<?xml version="1.0" encoding="utf-8"?>
<svg version="1.1" xmlns:xlink="http://www.w3.org/1999/xlink" width="12px" height="12px" viewBox="249 226  12 12" xmlns="http://www.w3.org/2000/svg">
  <path d="M 255 226  C 258.36 226  261 228.64  261 232  C 261 235.36  258.36 238  255 238  C 251.64 238  249 235.36  249 232  C 249 228.64  251.64 226  255 226  Z " fill-rule="nonzero" fill="#ffffff" stroke="none" />
  <path d="M 255 226.5  C 258.08 226.5  260.5 228.92  260.5 232  C 260.5 235.08  258.08 237.5  255 237.5  C 251.92 237.5  249.5 235.08  249.5 232  C 249.5 228.92  251.92 226.5  255 226.5  Z " stroke-width="1" stroke="#797979" fill="none" />
  <path d="M 255 235  C 253.32 235  252 233.68  252 232  C 252 230.32  253.32 229  255 229  C 256.68 229  258 230.32  258 232  C 258 233.68  256.68 235  255 235  " fill-rule="nonzero" fill="#797979" stroke="none" />
</svg>