<?xml version="1.0" encoding="utf-8"?>
<svg version="1.1" xmlns:xlink="http://www.w3.org/1999/xlink" width="12px" height="12px" viewBox="650 160  12 12" xmlns="http://www.w3.org/2000/svg">
  <path d="M 656 160  C 659.36 160  662 162.64  662 166  C 662 169.36  659.36 172  656 172  C 652.64 172  650 169.36  650 166  C 650 162.64  652.64 160  656 160  Z " fill-rule="nonzero" fill="#ffffff" stroke="none" />
  <path d="M 656 160.5  C 659.08 160.5  661.5 162.92  661.5 166  C 661.5 169.08  659.08 171.5  656 171.5  C 652.92 171.5  650.5 169.08  650.5 166  C 650.5 162.92  652.92 160.5  656 160.5  Z " stroke-width="1" stroke="#797979" fill="none" />
  <path d="M 656 169  C 654.32 169  653 167.68  653 166  C 653 164.32  654.32 163  656 163  C 657.68 163  659 164.32  659 166  C 659 167.68  657.68 169  656 169  " fill-rule="nonzero" fill="#797979" stroke="none" />
</svg>