<?xml version="1.0" encoding="utf-8"?>
<svg version="1.1" xmlns:xlink="http://www.w3.org/1999/xlink" width="12px" height="12px" viewBox="650 282  12 12" xmlns="http://www.w3.org/2000/svg">
  <path d="M 656 282  C 659.36 282  662 284.64  662 288  C 662 291.36  659.36 294  656 294  C 652.64 294  650 291.36  650 288  C 650 284.64  652.64 282  656 282  Z " fill-rule="nonzero" fill="#f0f0f0" stroke="none" />
  <path d="M 656 282.5  C 659.08 282.5  661.5 284.92  661.5 288  C 661.5 291.08  659.08 293.5  656 293.5  C 652.92 293.5  650.5 291.08  650.5 288  C 650.5 284.92  652.92 282.5  656 282.5  Z " stroke-width="1" stroke="#797979" fill="none" />
  <path d="M 656 291  C 654.32 291  653 289.68  653 288  C 653 286.32  654.32 285  656 285  C 657.68 285  659 286.32  659 288  C 659 289.68  657.68 291  656 291  " fill-rule="nonzero" fill="#797979" stroke="none" />
</svg>