<?xml version="1.0" encoding="utf-8"?>
<svg version="1.1" xmlns:xlink="http://www.w3.org/1999/xlink" width="12px" height="12px" viewBox="650 264  12 12" xmlns="http://www.w3.org/2000/svg">
  <path d="M 656 264  C 659.36 264  662 266.64  662 270  C 662 273.36  659.36 276  656 276  C 652.64 276  650 273.36  650 270  C 650 266.64  652.64 264  656 264  Z " fill-rule="nonzero" fill="#ffffff" stroke="none" />
  <path d="M 656 264.5  C 659.08 264.5  661.5 266.92  661.5 270  C 661.5 273.08  659.08 275.5  656 275.5  C 652.92 275.5  650.5 273.08  650.5 270  C 650.5 266.92  652.92 264.5  656 264.5  Z " stroke-width="1" stroke="#797979" fill="none" />
  <path d="M 656 273  C 654.32 273  653 271.68  653 270  C 653 268.32  654.32 267  656 267  C 657.68 267  659 268.32  659 270  C 659 271.68  657.68 273  656 273  " fill-rule="nonzero" fill="#797979" stroke="none" />
</svg>