<?xml version="1.0" encoding="utf-8"?>
<svg version="1.1" xmlns:xlink="http://www.w3.org/1999/xlink" width="10px" height="11px" xmlns="http://www.w3.org/2000/svg">
  <g transform="matrix(1 0 0 1 -1220 -135 )">
    <path d="M 0.7692307692307693 8.446428571428571  L 0.7692307692307693 10.214285714285715  L 2.5 10.214285714285715  L 2.5 8.446428571428571  L 0.7692307692307693 8.446428571428571  Z M 2.884615384615384 8.446428571428571  L 2.884615384615384 10.214285714285715  L 4.8076923076923075 10.214285714285715  L 4.8076923076923075 8.446428571428571  L 2.884615384615384 8.446428571428571  Z M 0.7692307692307693 6.089285714285714  L 0.7692307692307693 8.053571428571429  L 2.5 8.053571428571429  L 2.5 6.089285714285714  L 0.7692307692307693 6.089285714285714  Z M 2.884615384615384 6.089285714285714  L 2.884615384615384 8.053571428571429  L 4.8076923076923075 8.053571428571429  L 4.8076923076923075 6.089285714285714  L 2.884615384615384 6.089285714285714  Z M 0.7692307692307693 3.928571428571428  L 0.7692307692307693 5.696428571428571  L 2.5 5.696428571428571  L 2.5 3.928571428571428  L 0.7692307692307693 3.928571428571428  Z M 5.1923076923076925 8.446428571428571  L 5.1923076923076925 10.214285714285715  L 7.115384615384616 10.214285714285715  L 7.115384615384616 8.446428571428571  L 5.1923076923076925 8.446428571428571  Z M 2.884615384615384 3.928571428571428  L 2.884615384615384 5.696428571428571  L 4.8076923076923075 5.696428571428571  L 4.8076923076923075 3.928571428571428  L 2.884615384615384 3.928571428571428  Z M 7.5 8.446428571428571  L 7.5 10.214285714285715  L 9.230769230769232 10.214285714285715  L 9.230769230769232 8.446428571428571  L 7.5 8.446428571428571  Z M 5.1923076923076925 6.089285714285714  L 5.1923076923076925 8.053571428571429  L 7.115384615384616 8.053571428571429  L 7.115384615384616 6.089285714285714  L 5.1923076923076925 6.089285714285714  Z M 3.019831730769231 2.8881138392857144  C 3.057892628205128 2.8492373511904754  3.076923076923077 2.8031994047619038  3.076923076923077 2.75  L 3.076923076923077 0.9821428571428573  C 3.076923076923077 0.9289434523809524  3.057892628205128 0.8829055059523805  3.019831730769231 0.8440290178571427  C 2.981770833333334 0.8051525297619037  2.936698717948718 0.7857142857142854  2.884615384615384 0.7857142857142854  L 2.5 0.7857142857142854  C 2.447916666666667 0.7857142857142854  2.4028445512820515 0.8051525297619037  2.3647836538461537 0.8440290178571427  C 2.326722756410256 0.8829055059523805  2.307692307692308 0.9289434523809524  2.307692307692308 0.9821428571428573  L 2.307692307692308 2.75  C 2.307692307692308 2.8031994047619038  2.326722756410256 2.8492373511904754  2.3647836538461537 2.8881138392857144  C 2.4028445512820515 2.9269903273809526  2.447916666666667 2.946428571428572  2.5 2.946428571428572  L 2.884615384615384 2.946428571428572  C 2.936698717948718 2.946428571428572  2.981770833333334 2.9269903273809526  3.019831730769231 2.8881138392857144  Z M 7.5 6.089285714285714  L 7.5 8.053571428571429  L 9.230769230769232 8.053571428571429  L 9.230769230769232 6.089285714285714  L 7.5 6.089285714285714  Z M 5.1923076923076925 3.928571428571428  L 5.1923076923076925 5.696428571428571  L 7.115384615384616 5.696428571428571  L 7.115384615384616 3.928571428571428  L 5.1923076923076925 3.928571428571428  Z M 7.5 3.928571428571428  L 7.5 5.696428571428571  L 9.230769230769232 5.696428571428571  L 9.230769230769232 3.928571428571428  L 7.5 3.928571428571428  Z M 7.635216346153846 2.8881138392857144  C 7.6732772435897445 2.8492373511904754  7.6923076923076925 2.8031994047619038  7.6923076923076925 2.75  L 7.6923076923076925 0.9821428571428573  C 7.6923076923076925 0.9289434523809524  7.6732772435897445 0.8829055059523805  7.635216346153846 0.8440290178571427  C 7.597155448717949 0.8051525297619037  7.552083333333334 0.7857142857142854  7.5 0.7857142857142854  L 7.115384615384616 0.7857142857142854  C 7.063301282051283 0.7857142857142854  7.018229166666668 0.8051525297619037  6.980168269230768 0.8440290178571427  C 6.942107371794872 0.8829055059523805  6.923076923076923 0.9289434523809524  6.923076923076923 0.9821428571428573  L 6.923076923076923 2.75  C 6.923076923076923 2.8031994047619038  6.942107371794872 2.8492373511904754  6.980168269230768 2.8881138392857144  C 7.018229166666668 2.9269903273809526  7.063301282051283 2.946428571428572  7.115384615384616 2.946428571428572  L 7.5 2.946428571428572  C 7.552083333333334 2.946428571428572  7.597155448717949 2.9269903273809526  7.635216346153846 2.8881138392857144  Z M 9.771634615384615 1.8046875  C 9.923878205128206 1.9601934523809526  10 2.1443452380952377  10 2.357142857142857  L 10 10.214285714285715  C 10 10.427083333333334  9.923878205128206 10.61123511904762  9.771634615384615 10.766741071428571  C 9.619391025641026 10.922247023809524  9.439102564102566 11  9.230769230769232 11  L 0.7692307692307693 11  C 0.560897435897436 11  0.3806089743589744 10.922247023809524  0.2283653846153846 10.766741071428571  C 0.07612179487179487 10.61123511904762  0 10.427083333333334  0 10.214285714285715  L 0 2.357142857142857  C 0 2.1443452380952377  0.07612179487179487 1.9601934523809526  0.2283653846153846 1.8046875  C 0.3806089743589744 1.6491815476190463  0.560897435897436 1.571428571428572  0.7692307692307693 1.571428571428572  L 1.5384615384615385 1.571428571428572  L 1.5384615384615385 0.9821428571428573  C 1.5384615384615385 0.712053571428572  1.6326121794871795 0.48084077380952317  1.8209134615384615 0.28850446428571463  C 2.009214743589744 0.09616815476190488  2.2355769230769234 0  2.5 0  L 2.884615384615384 0  C 3.1490384615384617 0  3.3754006410256414 0.09616815476190488  3.563701923076923 0.28850446428571463  C 3.7520032051282053 0.48084077380952317  3.8461538461538463 0.712053571428572  3.8461538461538463 0.9821428571428573  L 3.8461538461538463 1.571428571428572  L 6.153846153846154 1.571428571428572  L 6.153846153846154 0.9821428571428573  C 6.153846153846154 0.712053571428572  6.247996794871796 0.48084077380952317  6.436298076923077 0.28850446428571463  C 6.62459935897436 0.09616815476190488  6.850961538461538 0  7.115384615384616 0  L 7.5 0  C 7.764423076923077 0  7.990785256410256 0.09616815476190488  8.179086538461538 0.28850446428571463  C 8.367387820512821 0.48084077380952317  8.461538461538462 0.712053571428572  8.461538461538462 0.9821428571428573  L 8.461538461538462 1.571428571428572  L 9.230769230769232 1.571428571428572  C 9.439102564102566 1.571428571428572  9.619391025641026 1.6491815476190463  9.771634615384615 1.8046875  Z " fill-rule="nonzero" fill="#8c8c8c" stroke="none" transform="matrix(1 0 0 1 1220 135 )" />
  </g>
</svg>