<?xml version="1.0" encoding="utf-8"?>
<svg version="1.1" xmlns:xlink="http://www.w3.org/1999/xlink" width="13px" height="13px" viewBox="10 86  13 13" xmlns="http://www.w3.org/2000/svg">
  <path d="M 10.5 88  A 1.5 1.5 0 0 1 12 86.5 L 21 86.5  A 1.5 1.5 0 0 1 22.5 88 L 22.5 97  A 1.5 1.5 0 0 1 21 98.5 L 12 98.5  A 1.5 1.5 0 0 1 10.5 97 L 10.5 88  Z " fill-rule="nonzero" fill="#ffffff" stroke="none" />
  <path d="M 10.5 88  A 1.5 1.5 0 0 1 12 86.5 L 21 86.5  A 1.5 1.5 0 0 1 22.5 88 L 22.5 97  A 1.5 1.5 0 0 1 21 98.5 L 12 98.5  A 1.5 1.5 0 0 1 10.5 97 L 10.5 88  Z " stroke-width="1" stroke="#8c8c8c" fill="none" />
  <path d="M 12.785714285714285 92.5  L 15.571428571428571 95.28571428571428  L 20.214285714285715 88.78571428571429  " stroke-width="2.7857142857142856" stroke="#8c8c8c" fill="none" />
</svg>